<svg width="21" height="21" viewBox="0 0 21 21" fill="none" xmlns="http://www.w3.org/2000/svg">
<path d="M14.4063 3.10124H17.7396C17.9606 3.10124 18.1726 3.18903 18.3288 3.34531C18.4851 3.50159 18.5729 3.71356 18.5729 3.93457V17.2679C18.5729 17.4889 18.4851 17.7009 18.3288 17.8572C18.1726 18.0134 17.9606 18.1012 17.7396 18.1012H2.73958C2.51857 18.1012 2.30661 18.0134 2.15033 17.8572C1.99405 17.7009 1.90625 17.4889 1.90625 17.2679V3.93457C1.90625 3.71356 1.99405 3.50159 2.15033 3.34531C2.30661 3.18903 2.51857 3.10124 2.73958 3.10124H6.07292V1.43457H7.73958V3.10124H12.7396V1.43457H14.4063V3.10124ZM12.7396 4.7679H7.73958V6.43457H6.07292V4.7679H3.57292V8.10124H16.9063V4.7679H14.4063V6.43457H12.7396V4.7679ZM16.9063 9.7679H3.57292V16.4346H16.9063V9.7679ZM5.23958 12.2679H6.90625V13.9346H5.23958V12.2679ZM8.57292 12.2679H15.2396V13.9346H8.57292V12.2679Z" fill="white"/>
</svg>
