<svg width="26" height="27" viewBox="0 0 26 27" fill="none" xmlns="http://www.w3.org/2000/svg">
<g clip-path="url(#clip0_775_13621)">
<path d="M9.70322 16.6276H4.13185C3.92076 16.6276 3.71832 16.5438 3.56905 16.3945C3.41979 16.2453 3.33594 16.0428 3.33594 15.8317V11.0563C3.33594 10.8452 3.41979 10.6427 3.56905 10.4935C3.71832 10.3442 3.92076 10.2604 4.13185 10.2604H9.70322V4.68898C9.70322 4.47789 9.78708 4.27545 9.93634 4.12618C10.0856 3.97692 10.288 3.89307 10.4991 3.89307H15.2746C15.4857 3.89307 15.6881 3.97692 15.8374 4.12618C15.9867 4.27545 16.0705 4.47789 16.0705 4.68898V10.2604H21.6419C21.853 10.2604 22.0554 10.3442 22.2047 10.4935C22.3539 10.6427 22.4378 10.8452 22.4378 11.0563V15.8317C22.4378 16.0428 22.3539 16.2453 22.2047 16.3945C22.0554 16.5438 21.853 16.6276 21.6419 16.6276H16.0705V22.199C16.0705 22.4101 15.9867 22.6125 15.8374 22.7618C15.6881 22.9111 15.4857 22.9949 15.2746 22.9949H10.4991C10.288 22.9949 10.0856 22.9111 9.93634 22.7618C9.78708 22.6125 9.70322 22.4101 9.70322 22.199V16.6276Z" stroke="black" stroke-width="2.12243" stroke-linecap="round" stroke-linejoin="round"/>
</g>
<defs>
<clipPath id="clip0_775_13621">
<rect width="25.4691" height="25.4691" fill="white" transform="translate(0.15625 0.709473)"/>
</clipPath>
</defs>
</svg>
