<svg width="26" height="27" viewBox="0 0 26 27" fill="none" xmlns="http://www.w3.org/2000/svg">
<g clip-path="url(#clip0_775_13600)">
<path d="M13.2031 11.0564V15.0359" stroke="black" stroke-width="2.12243" stroke-linecap="round" stroke-linejoin="round"/>
<path d="M11.8277 4.68898L3.07264 19.8113C2.93317 20.0529 2.85962 20.3268 2.85938 20.6058C2.85913 20.8847 2.93219 21.1589 3.07124 21.4007C3.21028 21.6425 3.41044 21.8435 3.65164 21.9837C3.89285 22.1238 4.16664 22.198 4.44559 22.199H21.9556C22.2346 22.198 22.5084 22.1238 22.7496 21.9837C22.9908 21.8435 23.1909 21.6425 23.33 21.4007C23.469 21.1589 23.5421 20.8847 23.5418 20.6058C23.5416 20.3268 23.468 20.0529 23.3286 19.8113L14.5736 4.68898C14.4351 4.4471 14.2352 4.24607 13.9942 4.10626C13.7531 3.96645 13.4793 3.89282 13.2006 3.89282C12.9219 3.89282 12.6482 3.96645 12.4071 4.10626C12.166 4.24607 11.9661 4.4471 11.8277 4.68898Z" stroke="black" stroke-width="2.12243" stroke-linecap="round" stroke-linejoin="round"/>
<path d="M13.2017 19.8113C13.861 19.8113 14.3955 19.2768 14.3955 18.6174C14.3955 17.9581 13.861 17.4236 13.2017 17.4236C12.5423 17.4236 12.0078 17.9581 12.0078 18.6174C12.0078 19.2768 12.5423 19.8113 13.2017 19.8113Z" fill="black"/>
</g>
<defs>
<clipPath id="clip0_775_13600">
<rect width="25.4691" height="25.4691" fill="white" transform="translate(0.46875 0.709473)"/>
</clipPath>
</defs>
</svg>
