<svg width="27" height="26" viewBox="0 0 27 26" fill="none" xmlns="http://www.w3.org/2000/svg">
<g clip-path="url(#clip0_804_12434)">
<path d="M16.0312 11.5042H20.0108" stroke="black" stroke-width="2.12243" stroke-linecap="round" stroke-linejoin="round"/>
<path d="M16.0312 14.6877H20.0108" stroke="black" stroke-width="2.12243" stroke-linecap="round" stroke-linejoin="round"/>
<path d="M10.0674 14.6878C11.3861 14.6878 12.4552 13.6188 12.4552 12.3001C12.4552 10.9814 11.3861 9.91235 10.0674 9.91235C8.74871 9.91235 7.67969 10.9814 7.67969 12.3001C7.67969 13.6188 8.74871 14.6878 10.0674 14.6878Z" stroke="black" stroke-width="2.12243" stroke-linecap="round" stroke-linejoin="round"/>
<path d="M6.98438 17.0754C7.15971 16.3906 7.55799 15.7836 8.11641 15.3501C8.67483 14.9167 9.36162 14.6814 10.0685 14.6814C10.7754 14.6814 11.4622 14.9167 12.0207 15.3501C12.5791 15.7836 12.9773 16.3906 13.1527 17.0754" stroke="black" stroke-width="2.12243" stroke-linecap="round" stroke-linejoin="round"/>
<path d="M22.3997 5.13672H4.88966C4.45009 5.13672 4.09375 5.49306 4.09375 5.93263V20.259C4.09375 20.6986 4.45009 21.0549 4.88966 21.0549H22.3997C22.8393 21.0549 23.1956 20.6986 23.1956 20.259V5.93263C23.1956 5.49306 22.8393 5.13672 22.3997 5.13672Z" stroke="black" stroke-width="2.12243" stroke-linecap="round" stroke-linejoin="round"/>
</g>
<defs>
<clipPath id="clip0_804_12434">
<rect width="25.4691" height="25.4691" fill="white" transform="translate(0.90625 0.361328)"/>
</clipPath>
</defs>
</svg>
