<svg width="49" height="49" viewBox="0 0 49 49" fill="none" xmlns="http://www.w3.org/2000/svg">
<path d="M42.5508 30.5V36.5H48.5508V40.5H42.5508V46.5H38.5508V40.5H32.5508V36.5H38.5508V30.5H42.5508ZM42.5668 6.5C43.6628 6.5 44.5508 7.39 44.5508 8.486V26.5H40.5508V10.5H8.55078V38.498L28.5508 18.5L34.5508 24.5V30.158L28.5508 24.158L14.2048 38.5H28.5508V42.5H6.53478C6.00841 42.4995 5.50377 42.29 5.13176 41.9176C4.75975 41.5452 4.55078 41.0404 4.55078 40.514V8.486C4.55444 7.96076 4.76458 7.45803 5.13581 7.08644C5.50703 6.71484 6.00954 6.50419 6.53478 6.5H42.5668ZM16.5508 14.5C17.6116 14.5 18.6291 14.9214 19.3792 15.6716C20.1294 16.4217 20.5508 17.4391 20.5508 18.5C20.5508 19.5609 20.1294 20.5783 19.3792 21.3284C18.6291 22.0786 17.6116 22.5 16.5508 22.5C15.4899 22.5 14.4725 22.0786 13.7224 21.3284C12.9722 20.5783 12.5508 19.5609 12.5508 18.5C12.5508 17.4391 12.9722 16.4217 13.7224 15.6716C14.4725 14.9214 15.4899 14.5 16.5508 14.5Z" fill="#BBBFC8"/>
</svg>
