<svg width="17" height="17" viewBox="0 0 17 17" fill="none" xmlns="http://www.w3.org/2000/svg">
<path d="M15.794 6.15975C15.794 6.29425 15.7406 6.42324 15.6455 6.51834C15.5504 6.61344 15.4214 6.66687 15.2869 6.66687H14.2726V7.6811C14.2726 7.8156 14.2192 7.94459 14.1241 8.03969C14.029 8.13479 13.9 8.18822 13.7655 8.18822C13.631 8.18822 13.502 8.13479 13.4069 8.03969C13.3118 7.94459 13.2584 7.8156 13.2584 7.6811V6.66687H12.2442C12.1097 6.66687 11.9807 6.61344 11.8856 6.51834C11.7905 6.42324 11.7371 6.29425 11.7371 6.15975C11.7371 6.02526 11.7905 5.89627 11.8856 5.80117C11.9807 5.70606 12.1097 5.65264 12.2442 5.65264H13.2584V4.6384C13.2584 4.50391 13.3118 4.37492 13.4069 4.27982C13.502 4.18471 13.631 4.13129 13.7655 4.13129C13.9 4.13129 14.029 4.18471 14.1241 4.27982C14.2192 4.37492 14.2726 4.50391 14.2726 4.6384V5.65264H15.2869C15.4214 5.65264 15.5504 5.70606 15.6455 5.80117C15.7406 5.89627 15.794 6.02526 15.794 6.15975ZM9.70859 3.62417H10.2157V4.13129C10.2157 4.26578 10.2691 4.39477 10.3642 4.48987C10.4593 4.58497 10.5883 4.6384 10.7228 4.6384C10.8573 4.6384 10.9863 4.58497 11.0814 4.48987C11.1765 4.39477 11.2299 4.26578 11.2299 4.13129V3.62417H11.7371C11.8716 3.62417 12.0005 3.57074 12.0956 3.47564C12.1907 3.38054 12.2442 3.25155 12.2442 3.11705C12.2442 2.98256 12.1907 2.85357 12.0956 2.75847C12.0005 2.66336 11.8716 2.60994 11.7371 2.60994H11.2299V2.10282C11.2299 1.96832 11.1765 1.83934 11.0814 1.74423C10.9863 1.64913 10.8573 1.5957 10.7228 1.5957C10.5883 1.5957 10.4593 1.64913 10.3642 1.74423C10.2691 1.83934 10.2157 1.96832 10.2157 2.10282V2.60994H9.70859C9.57409 2.60994 9.44511 2.66336 9.35 2.75847C9.2549 2.85357 9.20147 2.98256 9.20147 3.11705C9.20147 3.25155 9.2549 3.38054 9.35 3.47564C9.44511 3.57074 9.57409 3.62417 9.70859 3.62417ZM14.3214 9.77296C14.3805 9.84168 14.42 9.92497 14.436 10.0142C14.4519 10.1033 14.4437 10.1952 14.4121 10.2801C14.0602 11.2397 13.4723 12.0953 12.7025 12.7678C11.9328 13.4403 11.0061 13.9081 10.0079 14.128C9.00965 14.3479 7.97214 14.3128 6.99107 14.026C6.01 13.7392 5.11699 13.2099 4.39443 12.4869C3.67188 11.7639 3.14307 10.8706 2.85681 9.88937C2.57055 8.90814 2.53606 7.87061 2.75652 6.87253C2.97698 5.87445 3.4453 4.94799 4.11824 4.17863C4.79119 3.40928 5.64708 2.82182 6.60694 2.47048C6.69142 2.43954 6.78261 2.43163 6.87116 2.44757C6.95971 2.46351 7.04243 2.50272 7.11082 2.56117C7.17921 2.61963 7.23082 2.69523 7.26035 2.78022C7.28989 2.8652 7.29627 2.95652 7.27887 3.04479C7.10115 3.94427 7.14771 4.87367 7.41443 5.75088C7.68115 6.6281 8.15982 7.42612 8.80814 8.07444C9.45646 8.72276 10.2545 9.20143 11.1317 9.46814C12.0089 9.73486 12.9383 9.78142 13.8378 9.60371C13.9262 9.58643 14.0176 9.59301 14.1026 9.62275C14.1876 9.6525 14.2631 9.70434 14.3214 9.77296ZM13.0923 10.7162C12.9789 10.7219 12.8648 10.7251 12.7513 10.7251C11.0032 10.7232 9.32724 10.0279 8.09127 8.79168C6.85529 7.55547 6.16028 5.87938 6.15877 4.13129C6.15877 4.01782 6.15877 3.90372 6.16765 3.79025C5.49292 4.17852 4.91663 4.71691 4.48345 5.36372C4.05026 6.01053 3.7718 6.74838 3.66963 7.52012C3.56747 8.29185 3.64435 9.07675 3.89432 9.81399C4.14428 10.5512 4.56062 11.221 5.11108 11.7715C5.66154 12.322 6.33134 12.7383 7.06858 12.9883C7.80583 13.2382 8.59072 13.3151 9.36246 13.2129C10.1342 13.1108 10.872 12.8323 11.5189 12.3991C12.1657 11.9659 12.7041 11.3897 13.0923 10.7149V10.7162Z" fill="#0D2A55"/>
</svg>
