<svg width="25" height="25" viewBox="0 0 25 25" fill="none" xmlns="http://www.w3.org/2000/svg">
<path d="M20.2695 4.97266H17.8714L16.707 3.22328C16.6041 3.06904 16.4647 2.94263 16.3011 2.85528C16.1376 2.76794 15.955 2.72238 15.7695 2.72266H9.76953C9.58411 2.72238 9.4015 2.76794 9.23794 2.85528C9.07438 2.94263 8.93494 3.06904 8.83203 3.22328L7.66672 4.97266H5.26953C4.57334 4.97266 3.90566 5.24922 3.41338 5.7415C2.92109 6.23379 2.64453 6.90146 2.64453 7.59766V18.0977C2.64453 18.7939 2.92109 19.4615 3.41338 19.9538C3.90566 20.4461 4.57334 20.7227 5.26953 20.7227H20.2695C20.6143 20.7227 20.9556 20.6548 21.2741 20.5228C21.5926 20.3909 21.8819 20.1976 22.1257 19.9538C22.3694 19.7101 22.5628 19.4207 22.6947 19.1022C22.8266 18.7837 22.8945 18.4424 22.8945 18.0977V7.59766C22.8945 7.25294 22.8266 6.91159 22.6947 6.59311C22.5628 6.27463 22.3694 5.98526 22.1257 5.7415C21.8819 5.49775 21.5926 5.30439 21.2741 5.17247C20.9556 5.04056 20.6143 4.97266 20.2695 4.97266ZM20.6445 18.0977C20.6445 18.1971 20.605 18.2925 20.5347 18.3628C20.4644 18.4331 20.369 18.4727 20.2695 18.4727H5.26953C5.17008 18.4727 5.07469 18.4331 5.00437 18.3628C4.93404 18.2925 4.89453 18.1971 4.89453 18.0977V7.59766C4.89453 7.4982 4.93404 7.40282 5.00437 7.33249C5.07469 7.26217 5.17008 7.22266 5.26953 7.22266H8.26953C8.45495 7.22293 8.63757 7.17737 8.80113 7.09003C8.96469 7.00269 9.10412 6.87627 9.20703 6.72203L10.3714 4.97266H15.1667L16.332 6.72203C16.4349 6.87627 16.5744 7.00269 16.7379 7.09003C16.9015 7.17737 17.0841 7.22293 17.2695 7.22266H20.2695C20.369 7.22266 20.4644 7.26217 20.5347 7.33249C20.605 7.40282 20.6445 7.4982 20.6445 7.59766V18.0977ZM12.7695 7.97266C11.8795 7.97266 11.0095 8.23658 10.2695 8.73104C9.52944 9.22551 8.95267 9.92831 8.61207 10.7506C8.27148 11.5728 8.18236 12.4776 8.356 13.3506C8.52963 14.2235 8.95821 15.0253 9.58755 15.6546C10.2169 16.284 11.0187 16.7126 11.8916 16.8862C12.7645 17.0598 13.6693 16.9707 14.4916 16.6301C15.3139 16.2895 16.0167 15.7127 16.5111 14.9727C17.0056 14.2327 17.2695 13.3627 17.2695 12.4727C17.2683 11.2796 16.7938 10.1357 15.9501 9.29205C15.1065 8.4484 13.9626 7.9739 12.7695 7.97266ZM12.7695 14.7227C12.3245 14.7227 11.8895 14.5907 11.5195 14.3435C11.1495 14.0962 10.8611 13.7448 10.6908 13.3337C10.5205 12.9226 10.4759 12.4702 10.5628 12.0337C10.6496 11.5972 10.8639 11.1963 11.1785 10.8817C11.4932 10.567 11.8941 10.3527 12.3306 10.2659C12.767 10.1791 13.2194 10.2236 13.6306 10.3939C14.0417 10.5642 14.3931 10.8526 14.6403 11.2226C14.8876 11.5926 15.0195 12.0276 15.0195 12.4727C15.0195 13.0694 14.7825 13.6417 14.3605 14.0636C13.9386 14.4856 13.3663 14.7227 12.7695 14.7227Z" fill="#7A7A7A"/>
</svg>
