<svg width="21" height="20" viewBox="0 0 21 20" fill="none" xmlns="http://www.w3.org/2000/svg">
<path d="M4.60458 3.69352C6.11672 2.38324 8.05124 1.66323 10.0521 1.66602C14.6546 1.66602 18.3854 5.39686 18.3854 9.99936C18.3854 11.7794 17.8271 13.4294 16.8771 14.7827L14.2188 9.99936H16.7188C16.7189 8.69238 16.3348 7.41419 15.6143 6.32374C14.8938 5.23328 13.8687 4.37866 12.6664 3.86613C11.4641 3.3536 10.1377 3.20578 8.85205 3.44104C7.56642 3.6763 6.3783 4.28427 5.43542 5.18936L4.60458 3.69352ZM15.4996 16.3052C13.9875 17.6155 12.0529 18.3355 10.0521 18.3327C5.44958 18.3327 1.71875 14.6019 1.71875 9.99936C1.71875 8.21936 2.27708 6.56936 3.22708 5.21602L5.88542 9.99936H3.38542C3.38531 11.3063 3.76938 12.5845 4.48986 13.675C5.21035 14.7654 6.23547 15.6201 7.43777 16.1326C8.64006 16.6451 9.96649 16.7929 11.2521 16.5577C12.5378 16.3224 13.7259 15.7144 14.6688 14.8094L15.4996 16.3052Z" fill="white"/>
</svg>
