<svg width="17" height="17" viewBox="0 0 17 17" fill="none" xmlns="http://www.w3.org/2000/svg">
<g clip-path="url(#clip0_2659_1422)">
<path d="M8.56903 10.8431C9.96629 10.8431 11.099 9.71043 11.099 8.31317C11.099 6.91591 9.96629 5.7832 8.56903 5.7832C7.17177 5.7832 6.03906 6.91591 6.03906 8.31317C6.03906 9.71043 7.17177 10.8431 8.56903 10.8431Z" stroke="#0675F1" stroke-width="1.01199" stroke-linecap="round" stroke-linejoin="round"/>
<path d="M4.50781 13.3352C4.88852 12.5853 5.46943 11.9555 6.18615 11.5156C6.90288 11.0756 7.72743 10.8428 8.56841 10.8428C9.40938 10.8428 10.2339 11.0756 10.9507 11.5156C11.6674 11.9555 12.2483 12.5853 12.629 13.3352" stroke="#0675F1" stroke-width="1.01199" stroke-linecap="round" stroke-linejoin="round"/>
<path d="M13.1211 8.81934L14.6391 10.3373L16.1571 8.81934" stroke="#0675F1" stroke-width="1.01199" stroke-linecap="round" stroke-linejoin="round"/>
<path d="M0.976562 8.81974L2.49454 7.30176L4.01252 8.81974" stroke="#0675F1" stroke-width="1.01199" stroke-linecap="round" stroke-linejoin="round"/>
<path d="M14.641 10.3377V8.81976C14.6424 7.50789 14.2189 6.23083 13.4339 5.17976C12.6489 4.12868 11.5446 3.36011 10.2863 2.9891C9.02795 2.61808 7.68332 2.66458 6.45364 3.12163C5.22396 3.57867 4.17538 4.42168 3.46484 5.52448" stroke="#0675F1" stroke-width="1.01199" stroke-linecap="round" stroke-linejoin="round"/>
<path d="M2.4961 7.30176V8.81974C2.49467 10.1316 2.91815 11.4087 3.70316 12.4597C4.48817 13.5108 5.59248 14.2794 6.85079 14.6504C8.10911 15.0214 9.45374 14.9749 10.6834 14.5179C11.9131 14.0608 12.9617 13.2178 13.6722 12.115" stroke="#0675F1" stroke-width="1.01199" stroke-linecap="round" stroke-linejoin="round"/>
</g>
<defs>
<clipPath id="clip0_2659_1422">
<rect width="16.1918" height="16.1918" fill="white" transform="translate(0.472656 0.723633)"/>
</clipPath>
</defs>
</svg>
