<svg width="17" height="18" viewBox="0 0 17 18" fill="none" xmlns="http://www.w3.org/2000/svg">
<path d="M15.9564 8.94287C15.9564 9.14461 15.8762 9.33809 15.7336 9.48075C15.5909 9.6234 15.3975 9.70354 15.1957 9.70354H13.6376L11.3118 14.3544C11.2486 14.4807 11.1515 14.5869 11.0314 14.6611C10.9113 14.7354 10.7729 14.7747 10.6317 14.7747H10.5936C10.4461 14.7672 10.304 14.717 10.1845 14.6301C10.0651 14.5432 9.97355 14.4234 9.92106 14.2853L6.51134 5.33917L4.73136 9.25982C4.67062 9.39233 4.57309 9.5046 4.45037 9.58327C4.32765 9.66193 4.18491 9.70368 4.03914 9.70354H2.01068C1.80893 9.70354 1.61545 9.6234 1.4728 9.48075C1.33014 9.33809 1.25 9.14461 1.25 8.94287C1.25 8.74113 1.33014 8.54764 1.4728 8.40499C1.61545 8.26234 1.80893 8.18219 2.01068 8.18219H3.54914L5.88251 3.04764C5.94474 2.91116 6.04593 2.79612 6.17336 2.71699C6.30079 2.63787 6.44876 2.59818 6.59869 2.60292C6.74861 2.60766 6.89378 2.65662 7.01595 2.74365C7.13813 2.83067 7.23184 2.95187 7.28532 3.09201L10.7261 12.1225L12.4871 8.60056C12.5505 8.47464 12.6477 8.36883 12.7678 8.29495C12.888 8.22107 13.0262 8.18203 13.1672 8.18219H15.1957C15.3975 8.18219 15.5909 8.26234 15.7336 8.40499C15.8762 8.54764 15.9564 8.74113 15.9564 8.94287Z" fill="#0675F1"/>
</svg>
