<svg width="21" height="21" viewBox="0 0 21 21" fill="none" xmlns="http://www.w3.org/2000/svg">
<path d="M12.2161 12.6405V14.3822C11.4619 14.1155 10.6547 14.0337 9.86232 14.1437C9.06992 14.2536 8.31548 14.5521 7.66234 15.014C7.0092 15.4759 6.47643 16.0878 6.10878 16.7983C5.74113 17.5088 5.54933 18.2972 5.54948 19.0972L3.88281 19.0963C3.88255 18.0787 4.11525 17.0746 4.56306 16.1608C5.01088 15.2471 5.66193 14.4479 6.46633 13.8247C7.27073 13.2014 8.20713 12.7706 9.20377 12.5652C10.2004 12.3598 11.2309 12.3853 12.2161 12.6397V12.6405ZM10.5495 11.5972C7.78698 11.5972 5.54948 9.35967 5.54948 6.59717C5.54948 3.83467 7.78698 1.59717 10.5495 1.59717C13.312 1.59717 15.5495 3.83467 15.5495 6.59717C15.5495 9.35967 13.312 11.5972 10.5495 11.5972ZM10.5495 9.9305C12.3911 9.9305 13.8828 8.43883 13.8828 6.59717C13.8828 4.7555 12.3911 3.26383 10.5495 3.26383C8.70781 3.26383 7.21615 4.7555 7.21615 6.59717C7.21615 8.43883 8.70781 9.9305 10.5495 9.9305ZM15.5495 14.9305V12.4305H17.2161V14.9305H19.7161V16.5972H17.2161V19.0972H15.5495V16.5972H13.0495V14.9305H15.5495Z" fill="white"/>
</svg>
