<svg width="17" height="17" viewBox="0 0 17 17" fill="none" xmlns="http://www.w3.org/2000/svg">
<g clip-path="url(#clip0_2557_9490)">
<path d="M7.84182 2.65479V1.64056C7.84182 1.43881 7.92196 1.24533 8.06462 1.10268C8.20727 0.960025 8.40075 0.879883 8.6025 0.879883C8.80424 0.879883 8.99772 0.960025 9.14037 1.10268C9.28303 1.24533 9.36317 1.43881 9.36317 1.64056V2.65479C9.36317 2.85653 9.28303 3.05002 9.14037 3.19267C8.99772 3.33532 8.80424 3.41547 8.6025 3.41547C8.40075 3.41547 8.20727 3.33532 8.06462 3.19267C7.92196 3.05002 7.84182 2.85653 7.84182 2.65479ZM12.913 8.74019C12.913 9.59273 12.6602 10.4261 12.1865 11.135C11.7129 11.8438 11.0397 12.3963 10.252 12.7226C9.46441 13.0488 8.59771 13.1342 7.76156 12.9679C6.92541 12.8015 6.15735 12.391 5.55452 11.7882C4.95168 11.1853 4.54115 10.4173 4.37483 9.58113C4.20851 8.74497 4.29387 7.87828 4.62012 7.09064C4.94637 6.303 5.49886 5.62979 6.20772 5.15615C6.91657 4.68251 7.74996 4.4297 8.6025 4.4297C9.74535 4.43087 10.8411 4.88539 11.6492 5.69351C12.4573 6.50163 12.9118 7.59734 12.913 8.74019ZM11.3916 8.74019C11.3916 8.18855 11.2281 7.6493 10.9216 7.19063C10.6151 6.73196 10.1795 6.37446 9.66985 6.16336C9.16021 5.95226 8.5994 5.89702 8.05836 6.00464C7.51732 6.11226 7.02034 6.3779 6.63027 6.76797C6.24021 7.15804 5.97457 7.65502 5.86695 8.19606C5.75933 8.7371 5.81456 9.2979 6.02567 9.80755C6.23677 10.3172 6.59426 10.7528 7.05293 11.0593C7.5116 11.3658 8.05086 11.5293 8.6025 11.5293C9.34196 11.5285 10.0509 11.2344 10.5738 10.7115C11.0967 10.1886 11.3908 9.47966 11.3916 8.74019ZM3.75383 4.96788C3.82458 5.03863 3.90859 5.09476 4.00104 5.13306C4.09348 5.17135 4.19257 5.19106 4.29264 5.19106C4.3927 5.19106 4.49179 5.17135 4.58424 5.13306C4.67669 5.09476 4.76069 5.03863 4.83145 4.96788C4.90221 4.89712 4.95834 4.81312 4.99663 4.72067C5.03492 4.62822 5.05463 4.52913 5.05463 4.42907C5.05463 4.329 5.03492 4.22991 4.99663 4.13746C4.95834 4.04501 4.90221 3.96101 4.83145 3.89025L4.07077 3.12958C3.92787 2.98668 3.73406 2.9064 3.53196 2.9064C3.32987 2.9064 3.13605 2.98668 2.99315 3.12958C2.85025 3.27248 2.76997 3.4663 2.76997 3.66839C2.76997 3.87048 2.85025 4.0643 2.99315 4.2072L3.75383 4.96788ZM3.75383 12.5112L2.99315 13.2719C2.92239 13.3427 2.86627 13.4267 2.82797 13.5191C2.78968 13.6116 2.76997 13.7107 2.76997 13.8107C2.76997 13.9108 2.78968 14.0099 2.82797 14.1023C2.86627 14.1948 2.92239 14.2788 2.99315 14.3495C3.13605 14.4924 3.32987 14.5727 3.53196 14.5727C3.63203 14.5727 3.73112 14.553 3.82357 14.5147C3.91602 14.4764 4.00002 14.4203 4.07077 14.3495L4.83145 13.5889C4.97435 13.446 5.05463 13.2521 5.05463 13.05C5.05463 12.848 4.97435 12.6541 4.83145 12.5112C4.68855 12.3683 4.49473 12.2881 4.29264 12.2881C4.09054 12.2881 3.89673 12.3683 3.75383 12.5112ZM12.913 5.19037C13.0129 5.19045 13.1119 5.17084 13.2042 5.13267C13.2966 5.09449 13.3805 5.03849 13.4512 4.96788L14.2118 4.2072C14.2826 4.13644 14.3387 4.05244 14.377 3.95999C14.4153 3.86754 14.435 3.76846 14.435 3.66839C14.435 3.56832 14.4153 3.46924 14.377 3.37679C14.3387 3.28434 14.2826 3.20034 14.2118 3.12958C14.1411 3.05882 14.0571 3.00269 13.9646 2.9644C13.8722 2.92611 13.7731 2.9064 13.673 2.9064C13.573 2.9064 13.4739 2.92611 13.3814 2.9644C13.289 3.00269 13.205 3.05882 13.1342 3.12958L12.3735 3.89025C12.2665 3.99665 12.1936 4.13247 12.164 4.28044C12.1343 4.42841 12.1494 4.58184 12.2072 4.72123C12.2651 4.86061 12.3631 4.97964 12.4887 5.06318C12.6144 5.14672 12.7621 5.191 12.913 5.19037ZM13.4512 12.5125C13.3083 12.3696 13.1144 12.2893 12.9124 12.2893C12.7103 12.2893 12.5164 12.3696 12.3735 12.5125C12.2306 12.6554 12.1504 12.8492 12.1504 13.0513C12.1504 13.2534 12.2306 13.4472 12.3735 13.5901L13.1342 14.3508C13.2771 14.4937 13.4709 14.574 13.673 14.574C13.8751 14.574 14.0689 14.4937 14.2118 14.3508C14.3547 14.2079 14.435 14.0141 14.435 13.812C14.435 13.6099 14.3547 13.4161 14.2118 13.2732L13.4512 12.5125ZM3.27777 8.74019C3.27777 8.53845 3.19763 8.34497 3.05497 8.20231C2.91232 8.05966 2.71884 7.97952 2.5171 7.97952H1.50286C1.30112 7.97952 1.10764 8.05966 0.964984 8.20231C0.82233 8.34497 0.742188 8.53845 0.742188 8.74019C0.742188 8.94193 0.82233 9.13542 0.964984 9.27807C1.10764 9.42072 1.30112 9.50087 1.50286 9.50087H2.5171C2.71884 9.50087 2.91232 9.42072 3.05497 9.27807C3.19763 9.13542 3.27777 8.94193 3.27777 8.74019ZM8.6025 14.0649C8.40075 14.0649 8.20727 14.1451 8.06462 14.2877C7.92196 14.4304 7.84182 14.6238 7.84182 14.8256V15.8398C7.84182 16.0416 7.92196 16.235 8.06462 16.3777C8.20727 16.5204 8.40075 16.6005 8.6025 16.6005C8.80424 16.6005 8.99772 16.5204 9.14037 16.3777C9.28303 16.235 9.36317 16.0416 9.36317 15.8398V14.8256C9.36317 14.6238 9.28303 14.4304 9.14037 14.2877C8.99772 14.1451 8.80424 14.0649 8.6025 14.0649ZM15.7021 7.97952H14.6879C14.4862 7.97952 14.2927 8.05966 14.15 8.20231C14.0074 8.34497 13.9272 8.53845 13.9272 8.74019C13.9272 8.94193 14.0074 9.13542 14.15 9.27807C14.2927 9.42072 14.4862 9.50087 14.6879 9.50087H15.7021C15.9039 9.50087 16.0974 9.42072 16.24 9.27807C16.3827 9.13542 16.4628 8.94193 16.4628 8.74019C16.4628 8.53845 16.3827 8.34497 16.24 8.20231C16.0974 8.05966 15.9039 7.97952 15.7021 7.97952Z" fill="#0675F1"/>
</g>
<defs>
<clipPath id="clip0_2557_9490">
<rect width="16.2277" height="16.2277" fill="white" transform="translate(0.488281 0.625977)"/>
</clipPath>
</defs>
</svg>
