<svg width="17" height="17" viewBox="0 0 17 17" fill="none" xmlns="http://www.w3.org/2000/svg">
<g clip-path="url(#clip0_2593_10763)">
<path d="M14.2695 3.09766H12.0195V2.34766C12.0195 1.88353 11.8352 1.43841 11.507 1.11022C11.1788 0.782031 10.7337 0.597656 10.2695 0.597656H7.26953C6.8054 0.597656 6.36028 0.782031 6.03209 1.11022C5.70391 1.43841 5.51953 1.88353 5.51953 2.34766V3.09766H3.26953C3.07062 3.09766 2.87985 3.17667 2.7392 3.31733C2.59855 3.45798 2.51953 3.64874 2.51953 3.84766C2.51953 4.04657 2.59855 4.23733 2.7392 4.37799C2.87985 4.51864 3.07062 4.59766 3.26953 4.59766H3.51953V13.0977C3.51953 13.4292 3.65123 13.7471 3.88565 13.9815C4.12007 14.216 4.43801 14.3477 4.76953 14.3477H12.7695C13.1011 14.3477 13.419 14.216 13.6534 13.9815C13.8878 13.7471 14.0195 13.4292 14.0195 13.0977V4.59766H14.2695C14.4684 4.59766 14.6592 4.51864 14.7999 4.37799C14.9405 4.23733 15.0195 4.04657 15.0195 3.84766C15.0195 3.64874 14.9405 3.45798 14.7999 3.31733C14.6592 3.17667 14.4684 3.09766 14.2695 3.09766ZM7.01953 2.34766C7.01953 2.28135 7.04587 2.21776 7.09275 2.17088C7.13964 2.124 7.20323 2.09766 7.26953 2.09766H10.2695C10.3358 2.09766 10.3994 2.124 10.4463 2.17088C10.4932 2.21776 10.5195 2.28135 10.5195 2.34766V3.09766H7.01953V2.34766ZM12.5195 12.8477H5.01953V4.59766H12.5195V12.8477ZM8.01953 6.59766V10.5977C8.01953 10.7966 7.94051 10.9873 7.79986 11.128C7.65921 11.2686 7.46844 11.3477 7.26953 11.3477C7.07062 11.3477 6.87985 11.2686 6.7392 11.128C6.59855 10.9873 6.51953 10.7966 6.51953 10.5977V6.59766C6.51953 6.39874 6.59855 6.20798 6.7392 6.06733C6.87985 5.92667 7.07062 5.84766 7.26953 5.84766C7.46844 5.84766 7.65921 5.92667 7.79986 6.06733C7.94051 6.20798 8.01953 6.39874 8.01953 6.59766ZM11.0195 6.59766V10.5977C11.0195 10.7966 10.9405 10.9873 10.7999 11.128C10.6592 11.2686 10.4684 11.3477 10.2695 11.3477C10.0706 11.3477 9.87985 11.2686 9.7392 11.128C9.59855 10.9873 9.51953 10.7966 9.51953 10.5977V6.59766C9.51953 6.39874 9.59855 6.20798 9.7392 6.06733C9.87985 5.92667 10.0706 5.84766 10.2695 5.84766C10.4684 5.84766 10.6592 5.92667 10.7999 6.06733C10.9405 6.20798 11.0195 6.39874 11.0195 6.59766Z" fill="#7A7A7A"/>
</g>
<defs>
<clipPath id="clip0_2593_10763">
<rect width="16" height="16" fill="white" transform="translate(0.769531 0.0976562)"/>
</clipPath>
</defs>
</svg>
