<svg width="21" height="21" viewBox="0 0 21 21" fill="none" xmlns="http://www.w3.org/2000/svg">
<path d="M1.81641 3.93099C1.81641 3.70998 1.9042 3.49801 2.06048 3.34173C2.21676 3.18545 2.42873 3.09766 2.64974 3.09766H17.6497C17.8708 3.09766 18.0827 3.18545 18.239 3.34173C18.3953 3.49801 18.4831 3.70998 18.4831 3.93099V8.51432C17.9305 8.51432 17.4006 8.73382 17.0099 9.12452C16.6192 9.51522 16.3997 10.0451 16.3997 10.5977C16.3997 11.1502 16.6192 11.6801 17.0099 12.0708C17.4006 12.4615 17.9305 12.681 18.4831 12.681V17.2643C18.4831 17.4853 18.3953 17.6973 18.239 17.8536C18.0827 18.0099 17.8708 18.0977 17.6497 18.0977H2.64974C2.42873 18.0977 2.21676 18.0099 2.06048 17.8536C1.9042 17.6973 1.81641 17.4853 1.81641 17.2643V3.93099ZM6.88724 16.431C6.97313 16.1868 7.1327 15.9753 7.34391 15.8257C7.55513 15.6761 7.80758 15.5958 8.06641 15.5958C8.32524 15.5958 8.57768 15.6761 8.7889 15.8257C9.00011 15.9753 9.15968 16.1868 9.24557 16.431H16.8164V13.9577C16.1904 13.6474 15.6635 13.1684 15.2952 12.5748C14.9268 11.9811 14.7316 11.2963 14.7316 10.5977C14.7316 9.89899 14.9268 9.21421 15.2952 8.62054C15.6635 8.02686 16.1904 7.5479 16.8164 7.23766V4.76432H9.24557C9.15968 5.00849 9.00011 5.21996 8.7889 5.36957C8.57768 5.51917 8.32524 5.59951 8.06641 5.59951C7.80758 5.59951 7.55513 5.51917 7.34391 5.36957C7.1327 5.21996 6.97313 5.00849 6.88724 4.76432H3.48307V16.431H6.88724ZM8.06641 9.76432C7.73489 9.76432 7.41694 9.63263 7.18252 9.39821C6.9481 9.16379 6.81641 8.84584 6.81641 8.51432C6.81641 8.1828 6.9481 7.86486 7.18252 7.63044C7.41694 7.39602 7.73489 7.26432 8.06641 7.26432C8.39793 7.26432 8.71587 7.39602 8.95029 7.63044C9.18471 7.86486 9.31641 8.1828 9.31641 8.51432C9.31641 8.84584 9.18471 9.16379 8.95029 9.39821C8.71587 9.63263 8.39793 9.76432 8.06641 9.76432ZM8.06641 13.931C7.73489 13.931 7.41694 13.7993 7.18252 13.5649C6.9481 13.3305 6.81641 13.0125 6.81641 12.681C6.81641 12.3495 6.9481 12.0315 7.18252 11.7971C7.41694 11.5627 7.73489 11.431 8.06641 11.431C8.39793 11.431 8.71587 11.5627 8.95029 11.7971C9.18471 12.0315 9.31641 12.3495 9.31641 12.681C9.31641 13.0125 9.18471 13.3305 8.95029 13.5649C8.71587 13.7993 8.39793 13.931 8.06641 13.931Z" fill="white"/>
</svg>
