<svg width="19" height="22" viewBox="0 0 19 22" fill="none" xmlns="http://www.w3.org/2000/svg">
<path d="M3.19189 8.3751C3.19064 7.48596 3.36531 6.60535 3.70585 5.78401C4.04639 4.96266 4.54606 4.2168 5.17609 3.58938C5.80611 2.96197 6.55404 2.46541 7.3768 2.12829C8.19956 1.79117 9.08088 1.62016 9.97001 1.6251C13.6825 1.65323 16.6544 4.7376 16.6544 8.45948V9.1251C16.6544 12.4814 17.3575 14.4314 17.9763 15.5001C18.042 15.6139 18.0766 15.743 18.0767 15.8744C18.0769 16.0059 18.0424 16.135 17.9769 16.249C17.9114 16.3629 17.8171 16.4576 17.7035 16.5236C17.5898 16.5897 17.4608 16.6246 17.3294 16.6251H2.51689C2.38546 16.6246 2.25646 16.5897 2.14282 16.5236C2.02917 16.4576 1.93487 16.3629 1.86935 16.249C1.80384 16.135 1.76942 16.0059 1.76953 15.8744C1.76965 15.743 1.8043 15.6139 1.87001 15.5001C2.48876 14.4314 3.19189 12.4814 3.19189 9.1251V8.3751Z" stroke="#747474" stroke-width="1.6" stroke-linecap="round" stroke-linejoin="round"/>
<path d="M6.92578 16.625V17.375C6.92578 18.1706 7.24185 18.9337 7.80446 19.4963C8.36707 20.0589 9.13013 20.375 9.92578 20.375C10.7214 20.375 11.4845 20.0589 12.0471 19.4963C12.6097 18.9337 12.9258 18.1706 12.9258 17.375V16.625" stroke="#747474" stroke-width="1.6" stroke-linecap="round" stroke-linejoin="round"/>
</svg>
