<svg width="21" height="20" viewBox="0 0 21 20" fill="none" xmlns="http://www.w3.org/2000/svg">
<path d="M15.7967 13.8476L19.3658 17.4159L18.1867 18.5951L14.6183 15.0259C13.2906 16.0903 11.6392 16.6692 9.9375 16.6667C5.7975 16.6667 2.4375 13.3067 2.4375 9.16675C2.4375 5.02675 5.7975 1.66675 9.9375 1.66675C14.0775 1.66675 17.4375 5.02675 17.4375 9.16675C17.4399 10.8684 16.861 12.5199 15.7967 13.8476ZM14.125 13.2292C15.1826 12.1417 15.7732 10.6838 15.7708 9.16675C15.7708 5.94341 13.16 3.33341 9.9375 3.33341C6.71417 3.33341 4.10417 5.94341 4.10417 9.16675C4.10417 12.3892 6.71417 15.0001 9.9375 15.0001C11.4545 15.0025 12.9124 14.4118 14 13.3542L14.125 13.2292Z" fill="#747474"/>
</svg>
