<svg width="17" height="18" viewBox="0 0 17 18" fill="none" xmlns="http://www.w3.org/2000/svg">
<g clip-path="url(#clip0_2557_8668)">
<path d="M16.0501 8.94287C16.0501 9.14461 15.97 9.33809 15.8273 9.48075C15.6847 9.6234 15.4912 9.70354 15.2895 9.70354H13.7313L11.4056 14.3544C11.3424 14.4807 11.2453 14.5869 11.1252 14.6611C11.005 14.7354 10.8666 14.7747 10.7254 14.7747H10.6874C10.5399 14.7672 10.3977 14.717 10.2783 14.6301C10.1589 14.5432 10.0673 14.4234 10.0148 14.2853L6.60509 5.33917L4.82511 9.25982C4.76437 9.39233 4.66684 9.5046 4.54412 9.58327C4.4214 9.66193 4.27866 9.70368 4.13289 9.70354H2.10443C1.90268 9.70354 1.7092 9.6234 1.56655 9.48075C1.42389 9.33809 1.34375 9.14461 1.34375 8.94287C1.34375 8.74113 1.42389 8.54764 1.56655 8.40499C1.7092 8.26234 1.90268 8.18219 2.10443 8.18219H3.64289L5.97626 3.04764C6.03849 2.91116 6.13968 2.79612 6.26711 2.71699C6.39454 2.63787 6.54251 2.59818 6.69244 2.60292C6.84236 2.60766 6.98753 2.65662 7.1097 2.74365C7.23188 2.83067 7.32559 2.95187 7.37907 3.09201L10.8199 12.1225L12.5808 8.60056C12.6443 8.47464 12.7415 8.36883 12.8616 8.29495C12.9817 8.22107 13.12 8.18203 13.261 8.18219H15.2895C15.4912 8.18219 15.6847 8.26234 15.8273 8.40499C15.97 8.54764 16.0501 8.74113 16.0501 8.94287Z" fill="#E7295D"/>
</g>
<defs>
<clipPath id="clip0_2557_8668">
<rect width="16.2277" height="16.2277" fill="white" transform="translate(0.582031 0.829102)"/>
</clipPath>
</defs>
</svg>
